<mxfile host="app.diagrams.net" modified="2024-07-11T07:35:54.190Z" agent="Mozilla/5.0 (Macintosh; Intel Mac OS X 10_15_7) AppleWebKit/605.1.15 (KHTML, like Gecko) Version/17.5 Safari/605.1.15" version="24.6.4" etag="Ad5lTKWcnUMeX84VtJG7" type="github">
  <diagram name="第 1 页" id="FWaTTdv-0jdeVrI9vev9">
    <mxGraphModel>
      <root>
        <mxCell id="0" />
        <mxCell id="1" parent="0" />
      </root>
    </mxGraphModel>
  </diagram>
</mxfile>
